<svg id="Layer_1_copy" data-name="Layer 1 copy" xmlns="http://www.w3.org/2000/svg" viewBox="0 0 808.07 732.26"><defs><style>.cls-1{fill:#fff;}.cls-2{fill:#bc955c;}.cls-3{fill:#002d5d;}</style></defs><g id="BYU_Medallion" data-name="BYU Medallion"><path class="cls-1" d="M395,23.45c-184.61,0-334.27,149.66-334.27,334.26S210.35,692,395,692,729.21,542.3,729.21,357.71,579.56,23.45,395,23.45Z"/><path class="cls-2" d="M395,693.48A335.76,335.76,0,0,1,157.54,120.29,335.76,335.76,0,0,1,632.37,595.13,333.55,333.55,0,0,1,395,693.48ZM395,25C211.47,25,62.19,174.23,62.19,357.71S211.47,690.48,395,690.48,727.71,541.2,727.71,357.71,578.44,25,395,25Z"/><path class="cls-3" d="M408.85,39.41C233.13,31.74,84.41,168,76.75,343.73S205.33,668.15,381.05,675.8s324.43-128.57,332.1-304.29S584.59,47.08,408.85,39.41Z"/><path class="cls-1" d="M395,140.34c-120,0-217.27,97.26-217.27,217.28S275,574.87,395,574.87s217.27-97.26,217.27-217.25S515,140.34,395,140.34Z"/><path class="cls-2" d="M395,561.93c-112.69,0-204.36-91.69-204.36-204.38S282.27,153.19,395,153.19s204.35,91.68,204.35,204.36S507.64,561.93,395,561.93Zm0-405.74c-111,0-201.36,90.33-201.36,201.36S283.93,558.93,395,558.93s201.35-90.34,201.35-201.38S506,156.19,395,156.19Z"/><path class="cls-3" d="M355.88,512c-2,0-5.26,0-6.71.19-.29.1-.14-.91,0-.91,3-.34,4.3-.44,4.3-4.44V494.66c0-4-1.3-4.15-4.3-4.49-.14,0-.29-1,0-.87,1.45.2,4.68.2,6.71.2,1.45,0,4.63-.05,5.65-.2.29-.09.24.87.09.87-3.13.29-4.24.72-4.24,4.49v12.16c0,3.76,1.11,4.15,4.24,4.44.15,0,.2,1-.09.91C360.51,512,357.33,512,355.88,512Z"/><path class="cls-3" d="M370.89,504.74c0-3.57,2.75-6.66,7.38-8.59-3.09-2-5.69-4.15-5.69-7.76,0-5.07,4.1-8.59,9.31-8.59,4.34,0,7.91,3.09,7.91,7,0,3.38-2,5.65-6,7.77,3.42,2.12,6.66,4.54,6.66,8.78,0,5.21-4.2,9.31-10.23,9.31C375.23,512.7,370.89,509.42,370.89,504.74Zm3.71,0a6.16,6.16,0,0,0,6.23,6.47c4,0,6.32-2.51,6.32-5.74,0-4.15-3.72-6.23-7.34-8.4C376.39,498.76,374.6,501,374.6,504.74Zm1.45-18.48c0,3.52,3,5.5,6.32,7.48a7.67,7.67,0,0,0,4-6.66c0-3.42-2.27-5.84-5.36-5.84A4.73,4.73,0,0,0,376.05,486.26Z"/><path class="cls-3" d="M402.49,519.31c5.69-9.5,11.1-19.34,14.81-26.1h-9.89c-4.58,0-5.35.77-5.55,3.72,0,.09-.86.09-.86-.05a46.4,46.4,0,0,1,.48-6.76c.14-.53.34-.77.91-.77,1.55,0,4.69.15,7.77.15,4.2,0,6.61-.05,9.65-.25.2,0,.78,1,.63,1.26-4.39,8-11.1,20.75-15.73,29.72C404.47,520.67,402.2,519.75,402.49,519.31Z"/><path class="cls-3" d="M433.28,492.15c-1.4,0-2.47,1.74-2.47,3.43,0,1.49.49,2.31,6.37,5.11,4.3,2,6.18,5,6.18,8.25,0,5.21-4.83,9.6-14,11.39-.29,0-.39-.87-.29-.87,5.11-1.3,10.42-4.34,10.42-9.26,0-2.71-1.16-4.49-5.4-6.42-3.53-1.59-5.36-3-5.36-5.7a16.23,16.23,0,0,1,1.06-4.63c1.5-3.57,2.9-5,4.73-5,1.55,0,3.67,1.3,6.18,1.3,1.16,0,1.59-.67,2-2.6,0-.1.87-.15.87.1-.09,4.72-1.44,6.32-3.66,6.32C437.38,493.6,435.54,492.15,433.28,492.15Z"/><path class="cls-1" d="M170.49,487l-3.4,12.68-12.68-3.4,3.4-12.68Z"/><path class="cls-1" d="M159.5,439.57a87.86,87.86,0,0,0,3.18,8.85c.3.7-1.29.73-1.36.52-2.06-4.64-3.17-5.08-10.07-2.85l-16.44,5.3c-6.91,2.23-7.54,3.23-6.58,8.22.07.22-1.34,1.08-1.42.3a55.59,55.59,0,0,0-2.22-8.11c-.42-1.31-1.79-4.81-2.38-6.62-2-6.18-.91-12.79,4.54-14.55,3.05-1,7.34.84,9.91,4.59-1.65-6.37.6-11.6,5.32-13.12,6.11-2,12.83,2.2,15.51,10.49C158.08,434.41,159.05,438.19,159.5,439.57Zm-20.95,2.74c-2.14-6.61-4.93-7.56-8.86-6.29-5.38,1.73-6.43,5.2-4.92,9.86.23.72.4.75.66,1.55a36.07,36.07,0,0,0,7.48-1.93l16.65-5.38c5.89-1.9,7.18-2.15,5.86-6.22-1.94-6-5.07-8-10.16-6.36-5.3,1.72-8.33,6.78-5,14.23C140.29,442,138.62,442.53,138.55,442.31Z"/><path class="cls-1" d="M132.88,399.71a20.09,20.09,0,0,1,.25,2.2l6.34-1c6.81-1,8.09-1.74,7.78-6.95,0-.22,1.53-.61,1.44-.13,0,1.77.53,5.63.89,8.05a92,92,0,0,0,1.71,9.4c.22.44-1.4.44-1.44.22-1.26-4.84-2.3-5.61-9.48-4.54l-17.08,2.54c-6.57,1-7.83,2.4-7.44,5.05a11.8,11.8,0,0,0,.55,2.08c.19.28-1.19.87-1.33.43-1.12-2.31-2.42-9-3.34-15.19-1.52-10.2.92-16.12,7-17,3.78-.57,7.89,1.6,10.44,5.78,7.26-4.17,16.62-12.9,15.64-19.47,0-.23,1.37-.67,1.44-.22,1.84,12.4-5.88,20.73-14.43,24.55A30.41,30.41,0,0,1,132.88,399.71Zm-18.41,4.51c1.1.14,3.31,0,7.4-.64l9.06-1.35c-.1-.68-.09-1.14-.24-2.12-1.11-7.49-4.42-10-9.56-9.24-6.34.94-8.07,4.91-7.1,11.48A17.48,17.48,0,0,0,114.47,404.22Z"/><path class="cls-1" d="M145.76,358.27a90.11,90.11,0,0,0,.35,9.55c.16.61-1.45.24-1.45.08-.56-5-1.56-5.8-8.74-5.76l-17.27.1c-7.25,0-8.24.81-8.75,5.86,0,.15-1.53.46-1.45-.15a69.84,69.84,0,0,0,.33-9.48c0-2.29-.19-6.26-.43-8-.08-.62,1.45-.32,1.45-.17.41,5.27,2,5.8,8.82,5.76l17.27-.09c6.8,0,8.25-.59,8.67-5.86,0-.15,1.53-.47,1.46.14C145.8,352,145.74,356,145.76,358.27Z"/><path class="cls-1" d="M147.48,305c2,5.36,2.91,10,2.12,15.72-1.83,13.09-11.72,19.89-21.56,18.52-10.37-1.45-19-11.84-17.21-24.85.75-5.37,4.15-10.92,5.19-11.77.45-.41,5.36-.26,8.88.54.37.05,0,1.47-.13,1.45-4.51-.32-10.71,3.75-11.79,11.54-1.18,8.48,3.61,15,13.83,16.44,12.33,1.72,19.32-4.71,20.46-12.89.83-5.9-.48-7-1.27-7.43a15.23,15.23,0,0,0-3.58-.88c-7.27-1-7.6-.83-8.9,5.16,0,.23-1.58.24-1.44-.2.57-2.39,1.31-6.61,1.77-9.94a75.53,75.53,0,0,0,.75-7.53c-.09-.47,1.4-.11,1.37.12-.26,5.2.42,5.3,7.61,6.3C145.24,305.51,146.54,305.62,147.48,305Z"/><path class="cls-1" d="M161.56,270.62c-.06.38-1.45-.27-1.38-.48,1-4.36.22-5.51-6.48-7.85l-7.36-2.56-6.74,19.33,7.35,2.57c6.35,2.21,8.07,2.16,9.94-2,.07-.22,1.64.17,1.35.55-.82,1.65-2,4.8-2.81,7.11-1.08,3.11-2.49,7.15-3,9.55,0,.49-1.45-.26-1.38-.47,1.27-5.71.72-6.47-6.13-8.86l-16.31-5.68c-6.85-2.39-7.89-2.19-10.38,3.09-.08.22-1.64-.16-1.35-.55a78.55,78.55,0,0,0,3.63-9.25,74.34,74.34,0,0,0,2.16-7.34c0-.48,1.47.19,1.39.41-1.15,4.45.17,5.56,6.59,7.79l6.85,2.39L144.24,259l-6.85-2.39c-6.78-2.37-8.14-2-10,2.08-.08.22-1.64-.16-1.45-.5a60.66,60.66,0,0,0,3.38-8.29c.83-2.38,2.15-6.61,2.51-8.35,0-.48,1.52,0,1.39.41-1.53,5.77-.26,6.54,6.24,8.8l16.3,5.69c6.5,2.26,7.82,2.4,10.29-3,.13-.36,1.64.17,1.35.55-.8,1.58-2.33,5.74-3.16,8.12A78.88,78.88,0,0,0,161.56,270.62Z"/><path class="cls-1" d="M181.5,229.23c-.1.47-1.37-.53-1.26-.73,1-2.4,2.18-3.59.86-4.36-1.52-.89-4.2-1.3-7.21-1.9l-4.19-.84-6.22,10.7,2.62,3.55c2.17,2.95,3.67,4.79,5,5.56,1.12.65,1.85-.61,3.28-2.61.19-.33,1.58.48,1.21.8a54.41,54.41,0,0,0-3.56,5.53,40.16,40.16,0,0,0-2.93,5.63c-.16.44-1.37-.53-1.25-.73,1.65-3.45.87-6.21-3.22-11.94L147,213c-.25-.32.07-1,.54-.93l29.51,4.44c5.87.85,8.85,1.34,12-3.18.11-.2,1.58.47,1.22.79a76.47,76.47,0,0,0-4.11,6.46A96.16,96.16,0,0,0,181.5,229.23Zm-19.54.92L167.3,221l-13.48-2.36Z"/><path class="cls-1" d="M214.49,185.72c-.19.44-1.29-.74-1.14-.91,2.61-3.61,2.31-4.9-3.1-9.61L195,162.07l13.86,29.71c.18.37-.43.95-.76.86l-31.53-8.93L191,196.89c4.57,4.17,6.42,5.2,10.21,1.62.15-.17,1.46.78,1,1a49.77,49.77,0,0,0-4.4,4.48,64.75,64.75,0,0,0-5.2,6.31c-.19.44-1.24-.79-1.09-1,3-4.12,2.26-5.76-2.54-10.24l-14.76-13.64c-2-1.84-5.79-1.77-9,1.17-.16.18-1.45-.67-1-.91a109.49,109.49,0,0,0,8.51-9l30.58,8.39-8.49-17.47c-1.84-3.79-3.36-7.49-5.13-10.1a80.49,80.49,0,0,0,8.05-9.5c.19-.45,1.23.68,1.13.8-3.61,4.86-2.84,6.06,2.4,10.52l13.1,11.25c5.24,4.46,6.62,5,10.88.88.15-.17,1.45.78,1,1-1.39,1.22-4.34,4.42-6,6.25A79.28,79.28,0,0,0,214.49,185.72Z"/><path class="cls-1" d="M253.8,129.57l4.74,7.4c4.36,6.82,5,6.62,9.58,4.21.19-.12,1.19,1.15.72,1.26-1.67.8-4.93,2.79-7,4.11A89.71,89.71,0,0,0,254,152c-.3.37-1-1.1-.78-1.23,3.85-3.19,4.7-3.28.13-10.42l-4.24-6.63-8.59-3.94c-9.14-4.22-11-4.5-15.26-2.3-.19.13-1.25-1.1-.78-1.22a76.62,76.62,0,0,0,7.56-4.48c2.06-1.31,5.17-3.4,6.53-4.54.3-.37,1,1.06.85,1.18-4,3-2.4,3.63,6.47,7.57l5.59,2.5.4-7.88c.5-9.57,0-9.52-4.22-7.46-.2.13-1.32-1.06-.72-1.26A65,65,0,0,0,254,107.7a41.63,41.63,0,0,0,4.66-3.34c.3-.38,1,1,.85,1.18-4,3-4.56,4.64-5.07,13.76Z"/><path class="cls-1" d="M275.08,117.57c-3.94-9.7.95-22.24,12.55-27,10.91-4.43,22.61.63,26.38,9.91,3.91,9.62-.9,22.13-12.58,26.88C290.6,131.8,278.85,126.84,275.08,117.57Zm5-4.68c4.71,11.61,14.59,14.6,21.67,11.73,7.57-3.08,11.2-10,7.34-19.48-4.71-11.61-14.72-14.72-21.8-11.84C279.75,96.37,276.22,103.33,280.11,112.89Z"/><path class="cls-1" d="M361.23,96.33c1.49,7.65-3,15.22-13.08,17.17-8.7,1.7-17.19-2.33-18.94-11.33L326.64,89c-1.38-7.13-2.4-7.94-7.39-7.6-.23,0-.67-1.42-.19-1.36a71.25,71.25,0,0,0,9.36-1.51c2.4-.47,6.14-1.27,7.89-1.85.42-.23.71,1.27.34,1.34-5,1.44-5.17,3-3.86,9.78l2.32,11.92c1.71,8.78,8.17,11.57,13.94,10.45,7.57-1.48,10.76-6.3,9.26-14l-2.6-13.35c-1.25-6.45-2.29-7.42-7.29-7.07-.39,0-.66-1.43-.18-1.36a44.37,44.37,0,0,0,7.4-1.13,58.76,58.76,0,0,0,6.47-1.57c.59-.19.56,1.29.41,1.32-5.08,1.45-5.21,3.19-4,9.27Z"/><path class="cls-1" d="M414.53,98.17c0,2.83,0,8,.3,10.47,0,.23-.92.53-1.37.07L385.18,79.54,385,98c-.05,6.11.47,8.25,5.74,8.75.15,0,.29,1.61-.16,1.45a50.21,50.21,0,0,0-6.19-.35,67.06,67.06,0,0,0-8.25.24c-.39.08-.22-1.45,0-1.45,5-.5,5.82-2.17,5.87-8.66l.15-19.64c0-2.6-4.77-6.15-7.36-6.47-.23,0-.37-1.61.08-1.45A81.12,81.12,0,0,0,385,70.9l26.46,27.78.13-17.8c0-6.57-.7-8.26-5.66-8.83-.38-.08-.37-1.61.09-1.45a43.9,43.9,0,0,0,7.56.44,56.46,56.46,0,0,0,6.73-.33c.76-.07.37,1.45.21,1.45-5.35.34-5.82,2.63-5.87,8.74Z"/><path class="cls-1" d="M461.8,113c-5.47,1.64-10.2,2.34-15.82,1.23-13-2.57-19.19-12.83-17.26-22.58,2-10.27,12.9-18.32,25.79-15.77,5.32,1.06,10.66,4.76,11.46,5.86.37.46-.05,5.36-1.05,8.82-.07.38-1.47,0-1.44-.2.58-4.49-3.14-10.91-10.86-12.43-8.39-1.67-15.19,2.75-17.19,12.87C433,103,439,110.33,447.13,111.93c5.85,1.16,7-.08,7.49-.85a15.41,15.41,0,0,0,1.09-3.52c1.42-7.2,1.26-7.54-4.65-9.18-.23,0-.15-1.59.28-1.42,2.36.7,6.52,1.68,9.82,2.33,2.32.46,5.71,1,7.48,1.17.48-.06,0,1.41-.19,1.36-5.19-.56-5.32.12-6.73,7.24C461.39,110.71,461.21,112,461.8,113Z"/><path class="cls-1" d="M526.66,129.18c-3.46,7-11.65,10.26-20.82,5.72-7.94-3.93-12.25-12.28-8.18-20.5l6-12.05c3.22-6.51,2.91-7.77-1.27-10.52-.21-.1.33-1.54.68-1.2a72.41,72.41,0,0,0,8.35,4.48c2.19,1.08,5.65,2.71,7.4,3.31.47.07-.2,1.44-.55,1.27-4.86-1.89-5.94-.73-9,5.44L503.85,116c-4,8-.52,14.15,4.75,16.76,6.91,3.42,12.37,1.52,15.86-5.53l6-12.19c2.91-5.89,2.66-7.29-1.51-10-.31-.24.33-1.54.67-1.2a43.79,43.79,0,0,0,6.58,3.6,56.71,56.71,0,0,0,6.09,2.67c.58.2-.33,1.37-.47,1.3-4.93-1.93-6.09-.62-8.83,4.92Z"/><path class="cls-1" d="M567.93,163c-1.74,2.24-4.86,6.39-6.12,8.51-.14.18-1-.14-1.13-.79l-4.76-40.35-11.29,14.55c-3.75,4.83-4.64,6.85-.76,10.44.13.09-.74,1.46-1,1a49.25,49.25,0,0,0-4.7-4,66.43,66.43,0,0,0-6.7-4.82c-.35-.17.71-1.29.89-1.15,4.31,2.67,5.94,1.81,9.92-3.32l12-15.51c1.6-2,0-7.78-1.91-9.61-.19-.14.68-1.51,1-1.1a79.63,79.63,0,0,0,7.68,6.54l4.15,38.14,10.92-14.06c4-5.19,4.46-7,.86-10.46-.26-.29.68-1.5.95-1.1a43.8,43.8,0,0,0,5.74,4.94,53.17,53.17,0,0,0,5.55,3.82c.65.41-.59,1.39-.71,1.29-4.46-3-6.23-1.45-10,3.38Z"/><path class="cls-1" d="M578.13,187.54a87.52,87.52,0,0,0-6.75-6.76c-.53-.34.91-1.16,1-1.05,3.84,3.32,5.08,3.2,10.33-1.71l12.61-11.79c5.3-5,5.51-6.2,2.45-10.24-.1-.12.8-1.38,1.17-.88a70,70,0,0,0,6.19,7.18c1.56,1.67,4.39,4.47,5.76,5.6.47.39-.85,1.21-1,1.1-3.88-3.59-5.42-2.89-10.38,1.76L587,182.54c-5,4.65-5.67,6-2.4,10.19.1.12-.8,1.38-1.16.88C582.35,192.17,579.69,189.22,578.13,187.54Z"/><path class="cls-1" d="M600.55,216.6c-.24.07-.89-.6-.64-1l15.8-25.71c3.57-5.84,4.38-8.55,2.08-12.53-.13-.18,1.05-1.29,1.19-.83a75.8,75.8,0,0,0,4,6.49,74.7,74.7,0,0,0,6,7.87c.38.29-.87,1.17-1.15.9-1.69-1.9-2.65-3-3.9-2.13-.88.61-2.34,2-4.43,5.41l-10.73,17.62,20.21-4c4.56-.94,5.56-1.37,6.69-2.15s.75-2-.51-4.21c-.13-.19,1.06-1.29,1.2-.83a52.61,52.61,0,0,0,3.44,5.61,30.27,30.27,0,0,0,3.93,5c.39.29-1,1.08-1.14.89-2.37-2.73-5-3.42-12.21-2Z"/><path class="cls-1" d="M625.56,260.93c-.93-1.93-2.21-5.3-4.06-9.16-2.52-5.23-5.53-11.5-7.66-15.22-.19-.42,1.21-.84,1.31-.63,3.14,4.93,4.06,5.09,10.6,1.94l15.57-7.47c6.54-3.15,7.13-4,5.17-9.52-.1-.21,1.25-1.11,1.38-.67,1.5,4,4.35,10.12,6.86,15.35,1.79,3.72,3.65,7.24,5.44,10.27a14.36,14.36,0,0,0-3.74,1.38c-.55.26-2.1.92-2.41,1.16-.14.06-.84-1.21-.7-1.28,2.07-1.5,2.78-2.86-.43-9.54l-2.15-4.48a48.83,48.83,0,0,0-6.47,2.77l-6.34,3,1.66,3.44c2.78,5.79,3.11,6.13,5.58,5.62.14-.06.84,1.21.46,1.31a25.6,25.6,0,0,0-4.2,1.68l-3,1.42a4.37,4.37,0,0,1-.69-1.28c2.45-1.77,2.46-2.28-.19-7.79l-1.65-3.44-6.82,3.27c-6.61,3.18-7.07,3.82-5.94,6.16l1.29,2.69c3.8,7.92,5,7.59,8.74,6.73.07,0,.73,1.35.53,1.44a64.13,64.13,0,0,1-6.25,1.65C626.36,262.07,626,261.82,625.56,260.93Z"/><path class="cls-1" d="M649.43,279.27a17.37,17.37,0,0,1-.55-2.14L642.72,279c-6.59,1.95-7.76,2.85-6.73,8,.07.22-1.43.82-1.41.34-.28-1.75-1.31-5.51-2-7.85a93.59,93.59,0,0,0-3-9.07c-.28-.4,1.32-.63,1.39-.41,1.92,4.61,3.06,5.23,10,3.17l16.56-4.9c6.37-1.89,7.42-3.47,6.66-6a12,12,0,0,0-.83-2c-.23-.25,1-1,1.25-.61,1.43,2.13,3.65,8.56,5.43,14.57,2.92,9.89,1.33,16.1-4.53,17.83-3.66,1.08-8-.49-11.14-4.27-6.61,5.14-14.66,15.09-12.77,21.46.06.22-1.27.85-1.4.42-3.55-12,2.93-21.35,10.86-26.32A31.32,31.32,0,0,1,649.43,279.27Zm17.6-7c-1.11,0-3.28.49-7.24,1.66L651,276.5c.2.66.25,1.12.53,2.07,2.15,7.26,5.78,9.29,10.76,7.82,6.16-1.82,7.31-6,5.43-12.36A16.13,16.13,0,0,0,667,272.24Z"/><path class="cls-1" d="M644,311.53c.19-.34,4.46-.7,8.5-1,.38-.05.42,1.33.27,1.35-5.69,1.25-9.81,4.91-9,10.82.57,4.08,3.38,6.54,7,6,9.46-1.32,7.15-18,17.51-19.41,5.22-.72,11.25,3.22,12.22,10.18a13.84,13.84,0,0,1-1.09,7.71c-.24.5-3.26,1.54-7.12,2.07-.22,0-.43-1.48-.21-1.51,4.07-1.26,6.57-4.38,6-8.47-.5-3.56-2.6-6-6.09-5.48-9.08,1.26-6.58,17.58-17.47,19.09-6.21.87-12.26-3.23-13.26-10.42A15.7,15.7,0,0,1,644,311.53Z"/><path class="cls-1" d="M644.89,353.81a89.47,89.47,0,0,0-.47-9.55c-.16-.61,1.45-.25,1.45-.1.62,5,1.63,5.78,8.81,5.66l17.26-.29c7.26-.13,8.24-.91,8.69-6,0-.15,1.52-.48,1.45.13a70.2,70.2,0,0,0-.22,9.48c0,2.29.26,6.26.52,8,.09.61-1.45.33-1.45.17-.47-5.26-2.08-5.77-8.88-5.65l-17.27.29c-6.8.11-8.24.67-8.61,5.95,0,.15-1.52.48-1.45-.13C644.92,360.07,644.93,356.1,644.89,353.81Z"/><path class="cls-1" d="M670.25,410.81c-.23,0,0-1.38.17-1.36,2.57-.22,4.56-2,5.31-8l.62-5-24-3c-6.75-.84-8.25-.56-9.36,4.69,0,.23-1.57.19-1.42-.41.45-1.71,1-5.57,1.3-8a86.58,86.58,0,0,0,.86-9.36c-.08-.63,1.48-.12,1.45.1-.09,5.07.8,5.95,7.93,6.84l24,3,.66-5.31c.73-5.84-.66-8.32-3.22-9.4,0-.32.1-1.45.32-1.35a41.94,41.94,0,0,0,5.64,1.08,12,12,0,0,0,3,.07c.23-.05.14,1.33-.1,1.37-1.87.23-2,.37-3,8.56l-2,16.46c-1,8.11-1,8.49.79,9.18.22.1,0,1.53-.32,1.34a23.94,23.94,0,0,0-5-1.08C672.91,411.07,671,410.83,670.25,410.81Z"/><path class="cls-1" d="M651,439l-8.4-2.56c-7.75-2.36-8.07-1.82-10,3-.06.22-1.64-.11-1.36-.5.75-1.69,1.94-5.32,2.65-7.66a90.78,90.78,0,0,0,2.49-9.22c0-.49,1.45.2,1.39.42-.86,4.93-1.45,5.55,6.66,8l7.53,2.29,9.09-2.58c9.69-2.72,11.26-3.68,13.11-8.15.06-.22,1.66,0,1.38.42a77,77,0,0,0-2.85,8.32c-.71,2.34-1.73,5.94-2,7.69,0,.48-1.48-.13-1.41-.35,1.08-4.86-.52-4.31-9.83-1.56l-5.88,1.73,4.81,6.25c5.83,7.61,6.18,7.24,8.05,2.93.07-.22,1.69,0,1.37.5a65.67,65.67,0,0,0-2.68,7.73,40.82,40.82,0,0,0-1.37,5.57c0,.48-1.48-.13-1.41-.35,1.08-4.86.45-6.49-5.08-13.76Z"/><path class="cls-1" d="M619.68,487.9l12.69-3.35,3.35,12.7L623,500.6Z"/><path class="cls-1" d="M193.9,540.61c-.15-.17.86-1.09,1-.92l.46.51c3.55,3.89,8,4.26,12.54.15,4.29-3.91,4.27-8,.72-11.92-.36-.4-1.35-1.25-1.92-1.77-1.5.85-2.74,2-5.91,4.87l-12.76,11.62c-5.08,4.64-5.79,5.9-2.63,10.05.16.17-.93,1.36-1.12.92-1-1.45-3.59-4.38-5.23-6.19a89.47,89.47,0,0,0-6.61-6.8c-.52-.35.92-1.14,1.07-1,3.8,3.37,5,3.32,10.35-1.57L196.65,527c5.3-4.84,5.52-6.07,2.58-10.21-.16-.17.72-1.48,1-.93a70.62,70.62,0,0,0,5.48,6.48c.93,1,3.77,3.8,5.16,5.32,5.2,5.71,6.5,12.69,2,16.75-5,4.53-12.49,3.43-18.51-3.18C194.21,541,194,540.73,193.9,540.61Z"/><path class="cls-1" d="M224.63,569.2a17.67,17.67,0,0,1-1.69-1.43l-4,5c-4.26,5.4-4.69,6.81-.9,10.39.18.14-.7,1.5-1,1.09-1.24-1.27-4.25-3.74-6.17-5.26a86.51,86.51,0,0,0-7.68-5.68c-.45-.17.72-1.28.9-1.14,4.23,2.66,5.52,2.51,10-3.19l10.71-13.54c4.12-5.21,4.06-7.11,2-8.77a11.58,11.58,0,0,0-1.82-1.15c-.33-.07.27-1.44.67-1.22,2.4.92,7.92,4.9,12.83,8.78,8.1,6.4,10.37,12.39,6.58,17.18-2.37,3-6.85,4.23-11.57,2.93-2.43,8-3.28,20.78,1.94,24.9.18.15-.54,1.43-.9,1.14-9.83-7.77-9.91-19.13-6.3-27.76A30.16,30.16,0,0,1,224.63,569.2ZM235,553.31c-.9.65-2.4,2.29-5,5.53L224.32,566c.54.43.85.77,1.63,1.39,5.93,4.69,10.07,4.26,13.29.18,4-5,2.53-9.1-2.69-13.22A15.24,15.24,0,0,0,235,553.31Z"/><path class="cls-1" d="M253,588.24c4.79-9.31,17.48-13.77,28.63-8,10.46,5.38,14.24,17.56,9.66,26.46-4.75,9.23-17.38,13.73-28.59,8C252.27,609.28,248.38,597.14,253,588.24Zm6.83.76c-5.74,11.14-1.58,20.59,5.22,24.08,7.26,3.74,14.87,2,19.56-7.12,5.73-11.14,1.57-20.75-5.22-24.25C272.08,578,264.5,579.83,259.79,589Z"/><path class="cls-1" d="M315.33,635.09c-.13.2-1.06.09-1.15-.41l-3.8-29.94c-.88-6.79-1.94-9.41-6.24-11.06-.22-.07,0-1.67.41-1.39,1.7.73,4.95,1.84,7.23,2.51a75.44,75.44,0,0,0,9.56,2.41c.48,0,.05,1.44-.33,1.41-2.51-.42-3.94-.68-4.37.79-.31,1-.57,3-.06,7l2.68,20.45,13.23-15.79c3-3.59,3.48-4.55,3.87-5.87s-.68-2-3-3c-.22-.07,0-1.67.41-1.39a54.43,54.43,0,0,0,6.2,2.21,29.68,29.68,0,0,0,6.19,1.42c.49,0-.11,1.48-.33,1.41-3.56-.64-6,.47-10.78,6.08Z"/><path class="cls-1" d="M348.51,624.55c1-10.42,11.11-19.29,23.58-18.11,11.72,1.1,19.76,11,18.82,21-1,10.34-11,19.22-23.57,18C355.7,644.33,347.57,634.51,348.51,624.55Zm6.62-1.83c-1.18,12.47,6.2,19.69,13.81,20.41,8.14.76,14.54-3.7,15.5-13.89,1.18-12.47-6.26-19.85-13.86-20.57C362.44,607.9,356.1,612.45,355.13,622.72Z"/><path class="cls-1" d="M396.87,652.92c4.89-.1,6.07-2.26,6-4.17,0-1.3-.88-2-2.74-2.92-1.46-.66-2.16-1.26-2.19-2.56a2.63,2.63,0,0,1,2.78-2.58c2.44,0,5.08,2,5.16,5.71.09,4.43-3.67,7.87-8.94,8C396.52,654.38,396.72,652.93,396.87,652.92Z"/><path class="cls-1" d="M477,620.62c1.85,7.57-2.3,15.35-12.25,17.78-8.61,2.11-17.28-1.51-19.46-10.42l-3.19-13.06c-1.73-7-2.78-7.82-7.75-7.23-.22,0-.73-1.39-.25-1.35a72.19,72.19,0,0,0,9.27-2c2.38-.58,6.07-1.56,7.8-2.22.41-.26.77,1.23.4,1.32-4.94,1.68-5,3.27-3.39,9.95l2.89,11.8c2.12,8.68,8.71,11.16,14.42,9.76,7.5-1.83,10.45-6.8,8.58-14.44l-3.23-13.21c-1.56-6.38-2.65-7.3-7.62-6.71-.39,0-.73-1.4-.25-1.36a43.53,43.53,0,0,0,7.34-1.48,56.76,56.76,0,0,0,6.39-1.87c.57-.22.62,1.26.47,1.3-5,1.69-5.05,3.43-3.58,9.45Z"/><path class="cls-1" d="M520.9,584.11c.1.2-1.18.71-1.25.57-1.54-2.06-4.08-2.82-9.63-.24l-4.57,2.12,10.19,22c2.86,6.17,3.89,7.29,8.93,5.46.21-.1,1,1.22.41,1.41-1.69.53-5.26,2.1-7.48,3.13a88,88,0,0,0-8.4,4.23c-.49.4-.88-1.19-.68-1.28,4.35-2.61,4.63-3.83,1.61-10.35l-10.2-22L495,591.41c-5.33,2.48-6.71,5-6.27,7.72-.25.19-1.29.68-1.32.44a42.35,42.35,0,0,0-2.06-5.36,12.15,12.15,0,0,0-1.53-2.58c-.17-.17,1.05-.82,1.21-.65,1.19,1.48,1.36,1.48,8.85-2l15-7c7.41-3.44,7.76-3.6,7.37-5.53,0-.24,1.32-.78,1.31-.44a24.26,24.26,0,0,0,1.74,4.84C519.71,581.71,520.51,583.44,520.9,584.11Z"/><path class="cls-1" d="M560.59,594c-.29.38-1-1.07-.82-1.2,2-1.72,3.52-2.3,2.66-3.57-1-1.45-3.23-3-5.69-4.81l-3.42-2.57-10.22,7,.82,4.34c.7,3.59,1.25,5.89,2.11,7.16.74,1.07,1.93.25,4.08-.93.32-.22,1.22,1.11.76,1.24a54.55,54.55,0,0,0-5.6,3.45,38.84,38.84,0,0,0-5.07,3.82c-.33.32-1-1.07-.82-1.2,3-2.4,3.47-5.23,2.25-12.16l-5.14-30.06c-.09-.4.49-.9.88-.61l24.71,16.72c4.93,3.3,7.41,5,12.21,2.31.19-.13,1.22,1.11.76,1.24a76,76,0,0,0-6.49,4C565.85,590,562.44,592.33,560.59,594Zm-18-7.59,8.78-6-11.15-7.94Z"/><path class="cls-1" d="M604.33,556.35c-.21.33-1.19-.85-1-1,2.73-3.53,2.56-4.88-2.5-9.87L595.24,540l-14.37,14.59,5.55,5.47c4.79,4.72,6.37,5.41,9.86,2.41.16-.16,1.41.86,1,1.07-1.45,1.15-3.87,3.49-5.58,5.23a99.31,99.31,0,0,0-6.81,7.35c-.21.43-1.2-.86-1-1,3.59-4.62,3.42-5.54-1.75-10.63l-12.3-12.12c-5.17-5.09-6.2-5.36-10.71-1.65-.16.16-1.41-.85-1-1.07a77.49,77.49,0,0,0,7.24-6.81,74.89,74.89,0,0,0,5.1-5.71c.21-.43,1.24.8,1.08,1-2.94,3.54-2.23,5.1,2.61,9.87L579.3,553l14.37-14.58-5.17-5.09c-5.12-5.05-6.53-5.25-10-2.42-.16.17-1.41-.85-1.09-1.07a62.92,62.92,0,0,0,6.6-6c1.77-1.8,4.77-5.06,5.84-6.48.21-.43,1.36.7,1.09,1-3.86,4.57-3,5.8,1.86,10.63l12.3,12.12c4.9,4.82,6,5.52,10.6,1.65.27-.28,1.41.85,1,1.07-1.4,1.09-4.56,4.19-6.33,6A78.51,78.51,0,0,0,604.33,556.35Z"/><path class="cls-2" d="M524.55,456.21H269a1.5,1.5,0,0,1,0-3h255.6a1.5,1.5,0,0,1,0,3Z"/><path class="cls-2" d="M524.55,275.26H269a1.5,1.5,0,0,1,0-3h255.6a1.5,1.5,0,0,1,0,3Z"/><path class="cls-3" d="M306.61,225.58H303a30.72,30.72,0,0,0-.19,4.44v4.58H305c4,0,4.34-.53,4.78-2.22.05-.09,1-.09.92.1a15.73,15.73,0,0,0-.25,3.28,19.28,19.28,0,0,0,.05,2.32c.1.29-.87.38-.91.09-.29-1.44-.68-2.12-4.59-2.12h-2.12v5.07c0,4.58.34,5.21,3.76,5.5.24,0,.34,1-.05.92-1.11-.15-3.76-.2-5.3-.2a48.54,48.54,0,0,0-5.65.2c-.29.09-.14-.92,0-.92,2.8-.34,3.33-1,3.33-5.5V230.21c0-4.58-.39-5.16-4.05-5.55-.1,0-.24-1,.05-1,2.7.24,7.09.29,10.76.29,2.6,0,5-.15,6.32-.15.62,0,.91.1,1,.78s.19,3,.34,4c0,.15-.82.19-.87,0C312,226.3,312.11,225.58,306.61,225.58Z"/><path class="cls-3" d="M317.76,236.05c0-6.61,5.84-12.79,13.75-12.79,7.43,0,13.08,5.75,13.08,12.07,0,6.56-5.79,12.74-13.76,12.74C323.45,248.07,317.76,242.37,317.76,236.05Zm4.05-1.54c0,7.91,5.07,12,9.89,12,5.17,0,8.93-3.18,8.93-9.65,0-7.91-5.12-12.11-9.94-12.11C325.53,224.76,321.81,228,321.81,234.51Z"/><path class="cls-3" d="M372.48,239c0,4.93-3.71,9.08-10.18,9.08-5.6,0-10.37-3.53-10.37-9.32v-8.49c0-4.58-.54-5.21-3.67-5.6-.15,0-.24-1,.05-.87a43.52,43.52,0,0,0,6,.2c1.54,0,4-.05,5.11-.2.29-.09.29.87.05.87-3.28.29-3.57,1.26-3.57,5.6v7.67c0,5.65,3.67,8.16,7.38,8.16,4.88,0,7.44-2.61,7.44-7.58v-8.59c0-4.15-.54-4.87-3.67-5.26-.24,0-.24-1,.05-.87a26.77,26.77,0,0,0,4.73.2,34.8,34.8,0,0,0,4.19-.2c.39,0,.2.87.1.87-3.33.29-3.62,1.35-3.62,5.26Z"/><path class="cls-3" d="M405.05,241.12c0,1.78.05,5.06.24,6.61,0,.14-.58.34-.87.05l-18-18.29v11.63c0,3.86.33,5.21,3.66,5.5.1,0,.2,1-.09.92a30.07,30.07,0,0,0-3.91-.2,40.48,40.48,0,0,0-5.21.2c-.24,0-.15-.92,0-.92,3.18-.34,3.66-1.4,3.66-5.5v-12.4c0-1.64-3-3.86-4.68-4.06-.14,0-.24-1,.05-.91a50.85,50.85,0,0,0,6.37.29l16.84,17.42V230.21c0-4.15-.48-5.21-3.62-5.55-.24,0-.24-1,.05-.91a27.63,27.63,0,0,0,4.78.24,35.8,35.8,0,0,0,4.24-.24c.49-.05.24.91.15.91-3.38.24-3.67,1.69-3.67,5.55Z"/><path class="cls-3" d="M419.91,247.34a64.2,64.2,0,0,0-6.51.2c-.49,0-.2-.92,0-.92,3.18-.34,3.67-1,3.67-5.5V230.21c0-4.58-.49-5.21-3.67-5.55-.15,0-.39-1,.1-.91a57.79,57.79,0,0,0,6.8.24c.87,0,4.24-.15,5.55-.15,8.68,0,13.41,5,13.41,11.49s-5.74,12.16-13.89,12.16C424.06,247.49,420.78,247.34,419.91,247.34Zm1.3-21.81a20.39,20.39,0,0,0-.29,4.68v12.21c0,2.65.25,3.52,5.41,3.52a8.71,8.71,0,0,0,8.93-9.17c0-7.57-3.86-11.43-10.57-11.43A18.12,18.12,0,0,0,421.21,225.53Z"/><path class="cls-3" d="M459.67,247.54c-1.35,0-3.62-.2-6.32-.2-3.67,0-8.06,0-10.76.2-.29,0-.15-.92,0-.92,3.66-.44,4-.92,4-5.5V230.21c0-4.58-.34-5.16-4-5.55-.15,0-.29-1,0-1,2.7.24,7,.29,10.61.29,2.61,0,5.12-.1,7.34-.29a9.06,9.06,0,0,0-.24,2.51c0,.38-.05,1.45,0,1.69,0,.09-.92.14-.92,0-.29-1.59-.87-2.36-5.55-2.36h-3.14a30.72,30.72,0,0,0-.19,4.44v4.44h2.41c4.06,0,4.35-.1,4.73-1.64,0-.1.92-.15.87.09a17.12,17.12,0,0,0-.19,2.85v2.08a3,3,0,0,1-.92,0c-.34-1.88-.63-2-4.49-2H450.5v4.78c0,4.63.24,5.06,1.88,5.06h1.88c5.55,0,5.7-.77,6.23-3.14,0,0,1,0,1,.1-.14.92-.53,3.28-.77,4S460.3,247.54,459.67,247.54Z"/><path class="cls-3" d="M473,247.34a64.3,64.3,0,0,0-6.51.2c-.48,0-.19-.92,0-.92,3.19-.34,3.67-1,3.67-5.5V230.21c0-4.58-.48-5.21-3.67-5.55-.14,0-.38-1,.1-.91a57.87,57.87,0,0,0,6.8.24c.87,0,4.25-.15,5.55-.15,8.69,0,13.41,5,13.41,11.49s-5.74,12.16-13.89,12.16C477.18,247.49,473.9,247.34,473,247.34Zm1.31-21.81a20.39,20.39,0,0,0-.29,4.68v12.21c0,2.65.24,3.52,5.4,3.52a8.71,8.71,0,0,0,8.93-9.17c0-7.57-3.86-11.43-10.57-11.43A18,18,0,0,0,474.34,225.53Z"/><path class="cls-3" d="M559.78,325c0-2.58.15-4.22,1.89-5.11a23.94,23.94,0,0,1,6.37-2.08l.06,0c.12,0,.13-.4-.06-.4h-48c-.19,0-.18.37-.06.4h.06a24,24,0,0,1,6.37,2.09c1.74.88,1.88,2.54,1.88,5.12v47.92c0,10.93-6.25,19.32-18.68,19.32S491,383.84,491,372.91V325c0-2.58.15-4.25,1.89-5.14a23.94,23.94,0,0,1,6.37-2.08l.06,0c.13,0,.13-.4-.06-.4H454c-.19,0-.19.37-.06.4h.05a7.86,7.86,0,0,1,3.71,1.85c1.5,1.27,1.88,2.77,1.88,5.36v47.1c0,22.7,12.42,42,50.12,42s50.13-19.28,50.13-42Z"/><path class="cls-3" d="M265.09,335.29h14.57c9.5,0,15.07,1.47,15.07,10.11,0,5.61-3.46,10.61-14.68,10.61h-15Zm0,35.4h12.64c8.42,0,18.72,0,18.72,11.66,0,8.63-7.38,11.65-17.31,11.65H265.09ZM234.82,325v79.74c0,2.58-.15,4.25-1.88,5.13a23.66,23.66,0,0,1-6.38,2.09l-.05,0c-.13,0-.14.39.05.39H291c27.21,0,38.65-10.79,38.65-27.63,0-12.44-5.8-20.15-17.28-23-.07,0-.08-.18,0-.2,7.31-2.28,14-7.65,14-20.61,0-17.57-11.87-23.53-37.78-23.53H226.58c-.19,0-.19.37-.06.4h.06a24,24,0,0,1,6.37,2.09C234.69,320.76,234.82,322.39,234.82,325Z"/><path class="cls-3" d="M405.72,317.78c1.62,0,4.11.12,3.94,3.9-.14,3.28-17,27.15-19,30.74-5.92-9-18.86-27.18-19-30.74-.11-2.92,2.33-3.89,4.48-3.89l.06,0c.13,0,.14-.4-.06-.4H329.6c-.19,0-.18.37-.05.4h.05a17,17,0,0,1,5.25,1.74,8.59,8.59,0,0,1,1.18.78,23.56,23.56,0,0,1,4.43,5.32l32.85,48.64v30.46c0,2.59-.15,4.25-1.88,5.14a24.05,24.05,0,0,1-6.37,2.08l-.06,0c-.13,0-.14.4.06.4h50.56c.19,0,.19-.37.06-.4l-.05,0a24.12,24.12,0,0,1-6.38-2.08c-1.73-.89-1.88-2.55-1.88-5.13V374.47l32.9-48.85a23.3,23.3,0,0,1,4.43-5.32,12.65,12.65,0,0,1,1.17-.9,9.66,9.66,0,0,1,3.72-1.62h.05c.13,0,.14-.4-.06-.4H405.72c-.19,0-.19.37-.06.4Z"/></g></svg>